<?xml version="1.0" encoding="utf-8"?>
<!-- Generator: Adobe Illustrator 27.3.1, SVG Export Plug-In . SVG Version: 6.00 Build 0)  -->
<svg version="1.1" id="Capa_1" xmlns="http://www.w3.org/2000/svg" xmlns:xlink="http://www.w3.org/1999/xlink" x="0px" y="0px"
	 viewBox="0 0 1000 452.6" style="enable-background:new 0 0 1000 452.6;" xml:space="preserve">
<style type="text/css">
	.st0{fill:#49A8D8;}
	.st1{font-family:'STXihei';}
	.st2{font-size:134.65px;}
	.st3{fill:#EB8B26;stroke:#EC8B26;stroke-width:3;stroke-miterlimit:10;}
	.st4{fill:#020203;}
</style>
<g>
	<g>
		<text transform="matrix(1 6.869976e-03 -6.869976e-03 1 188.254 158.0378)" class="st0 st1 st2">PALABRA</text>
	</g>
	<g>
		<path class="st3" d="M77.9,331.16V196.59h27.93c19.12,0,33.14,1.4,42.08,4.22c8.93,2.81,16.65,7.25,23.15,13.31
			c6.5,6.06,11.49,13.47,14.99,22.21c3.5,8.75,5.25,18.49,5.25,29.24c0,12.62-2.72,24.09-8.15,34.39
			c-5.43,10.31-12.81,18.09-22.12,23.33c-9.31,5.25-22.71,7.87-40.2,7.87H77.9z M90.83,318.42h15.56c16.24,0,28.02-0.81,35.33-2.44
			c7.31-1.62,13.71-4.84,19.21-9.65c5.5-4.81,9.68-10.65,12.56-17.52c2.87-6.87,4.31-14.56,4.31-23.05c0-9.25-1.66-17.62-4.97-25.12
			c-3.31-7.5-8.03-13.68-14.15-18.56c-6.12-4.87-13.34-8.15-21.65-9.84c-8.31-1.69-20.52-2.53-36.64-2.53h-9.56V318.42z"/>
		<path class="st3" d="M219.4,196.59h13.49v134.57H219.4V196.59z"/>
		<path class="st3" d="M268.32,196.59h26.8c14.99,0,25.24,0.66,30.74,1.97c5.5,1.31,10.22,3.47,14.15,6.47
			c3.94,3,7.03,6.87,9.28,11.62c2.25,4.75,3.37,10,3.37,15.75c0,11.5-4.06,20.52-12.18,27.08c-8.12,6.56-19.62,9.59-34.49,9.09
			l48.54,62.6h-16.68l-48.36-62.6h-7.68v62.6h-13.49V196.59z M281.82,209.71v45.73h23.24c11.49,0.12,19.96-1.66,25.4-5.34
			c5.43-3.69,8.15-9.59,8.15-17.71c0-7.87-2.69-13.62-8.06-17.24c-5.37-3.62-13.68-5.43-24.93-5.43H281.82z"/>
		<path class="st3" d="M385.46,196.59h77.22v13.31h-63.73v41.98h63.16V265h-63.16v52.85h63.16v13.31h-76.66V196.59z"/>
		<path class="st3" d="M615.06,221.52l-10.49,8.06c-12.5-15.49-28.55-23.24-48.17-23.24c-16,0-29.77,5.62-41.33,16.87
			c-11.56,11.25-17.34,24.93-17.34,41.05c0,16.49,5.66,30.21,16.96,41.14c11.31,10.93,25.46,16.4,42.45,16.4
			c18.99,0,34.8-7.37,47.42-22.12l10.49,8.06c-6.62,8.75-14.99,15.4-25.12,19.96c-10.12,4.56-21.3,6.84-33.55,6.84
			c-21.37,0-38.86-6.75-52.48-20.24c-13.62-13.5-20.43-30.55-20.43-51.17c0-12.74,3.15-24.52,9.46-35.33
			c6.31-10.8,15.06-19.27,26.24-25.4c11.18-6.12,23.52-9.18,37.02-9.18c12.25,0,23.49,2.44,33.74,7.31
			C600.19,205.4,608.56,212.4,615.06,221.52z"/>
		<path class="st3" d="M632.68,209.71v-13.12h73.85v13.12h-29.99v121.45h-13.68V209.71H632.68z"/>
		<path class="st3" d="M784.87,191.15l62.79,140.01h-14.43l-21.18-45.92h-58.1l-20.99,45.92h-14.99l63.54-140.01H784.87z
			 M783.18,220.95l-23.05,50.6h45.92L783.18,220.95z"/>
	</g>
	<polygon class="st4" points="920.91,386.63 921.01,386.63 877.86,325.32 877.86,344.92 877.86,376.64 66.84,376.64 66.84,403.47 
		932.66,403.47 	"/>
</g>
</svg>
