<?xml version="1.0" encoding="utf-8"?>
<!-- Generator: Adobe Illustrator 27.3.1, SVG Export Plug-In . SVG Version: 6.00 Build 0)  -->
<svg version="1.1" id="Capa_1" xmlns="http://www.w3.org/2000/svg" xmlns:xlink="http://www.w3.org/1999/xlink" x="0px" y="0px"
	 viewBox="0 0 794.57 505.13" style="enable-background:new 0 0 794.57 505.13;" xml:space="preserve">
<style type="text/css">
	.st0{fill:url(#SVGID_1_);}
	.st1{fill:url(#SVGID_00000078731357198538472060000017429373018132728757_);}
	.st2{fill:#FFFFFF;}
	.st3{fill:url(#SVGID_00000103259687193745731030000005437736323599320506_);}
	.st4{fill:url(#SVGID_00000023239221198733255760000008319450105922921127_);}
	.st5{fill:url(#SVGID_00000146494176999564931330000016242491046082580400_);}
	.st6{fill:url(#SVGID_00000183967073589523842500000013339848650141493637_);}
	.st7{fill:#DEFBFF;}
	.st8{fill:#E5FFE1;}
	.st9{fill:#FDE1FF;}
	.st10{fill:#FFFDE1;}
	.st11{fill:#FFE1E1;}
	.st12{fill:#FF9D00;}
	.st13{fill:url(#SVGID_00000150066907935850168600000017243399551890271360_);}
	.st14{fill:url(#SVGID_00000134969118391664361660000006070973913327840178_);}
	.st15{fill:url(#SVGID_00000174574705158623222460000015046707174326853037_);}
	.st16{fill:url(#SVGID_00000098918704614208223450000012985129321410443168_);}
	.st17{fill:url(#SVGID_00000149359863187771153720000013119402346474480794_);}
	.st18{fill:url(#SVGID_00000031928283138389750700000014492757105392580992_);}
	.st19{fill:#60B2BC;}
	.st20{fill:#3769A0;}
	.st21{fill:url(#SVGID_00000013912349661429056470000014263728841926738341_);}
	.st22{fill:url(#SVGID_00000118385595273740607440000006772088527772159398_);}
	.st23{fill:url(#SVGID_00000119088591523162933310000013630589426415370134_);}
	.st24{fill:url(#SVGID_00000016789310681447731920000006892991376409100720_);}
	.st25{fill:url(#SVGID_00000100349265996199162990000016814127346874214297_);}
	.st26{fill:url(#SVGID_00000019669577448266752540000016842995352827585211_);}
	.st27{fill:url(#SVGID_00000029005904231977207000000000051006981275017658_);}
	.st28{fill:url(#SVGID_00000054969347238069130160000009771348492801672840_);}
	.st29{fill:url(#SVGID_00000027566411915440391520000006172868261780760214_);}
	.st30{fill:#21A3AD;}
	.st31{fill:url(#SVGID_00000153702098192249236730000006161214404210643647_);}
	.st32{fill:url(#SVGID_00000112629689917874330930000012964813823825967533_);}
	.st33{fill:url(#SVGID_00000118362851214503989180000018426317012905604027_);}
	.st34{fill:url(#SVGID_00000135677061196866846710000007652525573477743003_);}
	.st35{fill:url(#SVGID_00000012440170393255462110000006781146874931783863_);}
	.st36{fill:url(#SVGID_00000099658305738490735110000017972066418158985650_);}
	.st37{fill:url(#SVGID_00000181808152537710808770000007521003630572307123_);}
	
		.st38{clip-path:url(#SVGID_00000141424998866801071150000002984374255932466310_);fill:url(#SVGID_00000063619689168218261560000010336974067774970270_);}
	.st39{fill:#3C5E8C;}
	.st40{fill:#0A60DD;}
	.st41{fill:url(#SVGID_00000142873815607219017450000009702759655112451243_);}
	.st42{fill:url(#SVGID_00000121239308474036205530000012345639961955317905_);}
	.st43{fill:url(#SVGID_00000006689195106933672870000007123355240316749191_);}
	
		.st44{clip-path:url(#SVGID_00000012445121434428724590000004254238895683104660_);fill:url(#SVGID_00000144295716333492507960000007184942835192375199_);}
	.st45{fill:url(#SVGID_00000070105471759862456100000006469362759906522245_);}
	
		.st46{clip-path:url(#SVGID_00000129179517972654422640000006928795940445857716_);fill:url(#SVGID_00000137831477209775495930000011764549931076576924_);}
	.st47{fill:url(#SVGID_00000150793008655759683940000016986385617513946277_);}
	
		.st48{clip-path:url(#SVGID_00000127737827516788382320000003502829530559912618_);fill:url(#SVGID_00000066484026780302955030000012438720984559032499_);}
	.st49{fill:#3D3D3D;}
	.st50{fill:url(#SVGID_00000038382461823005426260000017295397851830763676_);}
	
		.st51{clip-path:url(#SVGID_00000000182069591224417660000001217319415331655100_);fill:url(#SVGID_00000109032097786900839610000018404224616755738036_);}
	.st52{fill:url(#SVGID_00000012449247663755554310000006375452534984250559_);}
	
		.st53{clip-path:url(#SVGID_00000105416529522501426310000016811151867429084597_);fill:url(#SVGID_00000063596895574673537140000011507643194042492563_);}
	.st54{fill:url(#SVGID_00000079457014379397298170000007204555343639954855_);}
	
		.st55{clip-path:url(#SVGID_00000096750703891389101960000008180813103138389673_);fill:url(#SVGID_00000074444311325568054190000017929975388820745132_);}
	.st56{fill:url(#SVGID_00000178922671472070300660000010959394524489635747_);}
	
		.st57{clip-path:url(#SVGID_00000027589925703871288610000008913185679599160469_);fill:url(#SVGID_00000080186572837586071700000001716904447100777109_);}
	.st58{fill:url(#SVGID_00000005965462868480957770000014768673173276264867_);}
	
		.st59{clip-path:url(#SVGID_00000176018914881304068400000005335235464841986434_);fill:url(#SVGID_00000125593897519541569430000000602291827224730508_);}
	.st60{fill:url(#SVGID_00000111909721277354651080000005606521296457097903_);}
	
		.st61{clip-path:url(#SVGID_00000052081579204267472180000007109640657946751928_);fill:url(#SVGID_00000142142160610640461900000014317811207752888204_);}
	.st62{fill:url(#SVGID_00000164496497823462626550000007652002611619295107_);}
	
		.st63{clip-path:url(#SVGID_00000020362191187527052270000010782236531519854229_);fill:url(#SVGID_00000118356208926704354210000008970155511211984022_);}
	.st64{fill:url(#SVGID_00000031170925982406569010000004321362930307419536_);}
	
		.st65{clip-path:url(#SVGID_00000164489409026239768440000012057971940559440279_);fill:url(#SVGID_00000048480729220781268850000016165025068805804196_);}
	.st66{fill:url(#SVGID_00000091716928789634457430000015909821286799061646_);}
	
		.st67{clip-path:url(#SVGID_00000053535006809387761630000010044968847482384038_);fill:url(#SVGID_00000145779015466725428940000002019620505892513213_);}
	.st68{fill:url(#SVGID_00000147902101141451992780000007176983558931999113_);}
	
		.st69{clip-path:url(#SVGID_00000045594117668898164610000015144930776956132535_);fill:url(#SVGID_00000026875884006950000150000004736429454693611905_);}
	.st70{fill:none;stroke:#A3A3A3;stroke-width:4;stroke-miterlimit:10;stroke-dasharray:12.0646,12.0646;}
	.st71{fill:none;stroke:#3D3D3D;stroke-width:2;stroke-miterlimit:10;}
	.st72{fill:url(#SVGID_00000091008426120364614930000011068256517530894015_);}
	
		.st73{clip-path:url(#SVGID_00000164483525076345162140000006503356385612039091_);fill:url(#SVGID_00000002368033549826183170000002470312547371043261_);}
	.st74{fill:url(#SVGID_00000034779088211814891570000005902974825764400283_);}
	
		.st75{clip-path:url(#SVGID_00000115506499545948208010000010429079299620930466_);fill:url(#SVGID_00000078761853631673102410000009513478281685574056_);}
	.st76{fill:url(#SVGID_00000152983674429956800640000014810236225991721894_);}
	
		.st77{clip-path:url(#SVGID_00000059311025053033423070000017654938474933571237_);fill:url(#SVGID_00000075156374042182519440000009784809857675755187_);}
	.st78{fill:url(#SVGID_00000158716860650044783570000016805497284614023553_);}
	
		.st79{clip-path:url(#SVGID_00000147220259208850770650000012716389249404938675_);fill:url(#SVGID_00000108302806863031826330000007321092489616673691_);}
	.st80{fill:url(#SVGID_00000062879971498006596820000014432923445228570764_);}
	
		.st81{clip-path:url(#SVGID_00000093150284070473709120000009166204064275833734_);fill:url(#SVGID_00000067929888162253953720000014476089018488272021_);}
	.st82{fill:url(#SVGID_00000018933787280438817940000006126251738977307055_);}
	
		.st83{clip-path:url(#SVGID_00000036236820380023662560000011654305626891595161_);fill:url(#SVGID_00000034807749340770775400000003195278705907605404_);}
	.st84{fill:url(#SVGID_00000171715704373824572960000006115930561153371828_);}
	
		.st85{clip-path:url(#SVGID_00000116201702514053245410000000342939526376863626_);fill:url(#SVGID_00000128449908697438508740000008708559132587590537_);}
	.st86{fill:url(#SVGID_00000072965372126693620930000010459772851690966934_);}
	
		.st87{clip-path:url(#SVGID_00000117640920698777870290000009584789709964652187_);fill:url(#SVGID_00000152985048421142336950000003031853876965785216_);}
	.st88{fill:url(#SVGID_00000173140151679139583740000003846249920303695265_);}
	.st89{fill:url(#SVGID_00000181779599917017259600000013294998670606523839_);}
	.st90{fill:url(#SVGID_00000121238352886099708890000003565109936467903907_);}
	.st91{fill:url(#SVGID_00000038412568885098832300000001139497418453924485_);}
	.st92{fill:url(#SVGID_00000065785325472622501550000009670306890335871389_);}
	.st93{fill:url(#SVGID_00000001665057864412290470000000918755337597606276_);}
	.st94{fill:url(#SVGID_00000128457979630464118940000009825591311153522605_);}
	.st95{fill:url(#SVGID_00000123420823316232603130000010773687441339261334_);}
	.st96{fill:url(#SVGID_00000175309366382507408450000010157759416781087370_);}
	.st97{fill:url(#SVGID_00000127742759408922920830000006529695552897363893_);}
	.st98{fill:url(#SVGID_00000025423240721256193320000009425398291724055727_);}
	.st99{fill:url(#SVGID_00000150098875858333078450000016331322702306594202_);}
	.st100{fill:url(#SVGID_00000098193480905248024810000005258129059000045498_);}
	.st101{fill:url(#SVGID_00000176029429875706392870000007419734937222221493_);}
	.st102{fill:url(#SVGID_00000118389524446958952550000015282650269754842782_);}
	.st103{fill:url(#SVGID_00000107560301150548174620000003161674600868690363_);}
	.st104{fill:url(#SVGID_00000027576194116432090830000011307241278716523445_);}
	.st105{fill:#2E80B7;}
	.st106{fill:url(#SVGID_00000150100210457402653790000003936416055143466627_);}
	.st107{fill:url(#SVGID_00000183933997629368886830000002628162809027830441_);}
	.st108{fill:url(#SVGID_00000096774779320258772960000005213211226757892780_);}
	.st109{fill:url(#SVGID_00000116224918047969345550000013287606138454100121_);}
	.st110{fill:#FFE9E9;}
	.st111{fill:url(#SVGID_00000105413357006617875030000012724301450515332756_);}
	.st112{fill:#E6FFEB;}
	.st113{fill:url(#SVGID_00000174561077902690951690000014580086466176752517_);}
	.st114{fill:url(#SVGID_00000063600452033886900500000005548174080332683430_);}
	.st115{fill:#FFFDE3;}
	.st116{fill:url(#SVGID_00000048485136553478544340000012879615904539483303_);}
	.st117{fill:url(#SVGID_00000111189009345818036850000009339144424415009152_);}
	.st118{fill:url(#SVGID_00000119796998654406201920000004579306939357048459_);}
	.st119{fill:url(#SVGID_00000090280907788138085760000018245718239469802892_);}
	.st120{fill:url(#SVGID_00000086650876587339748880000000901598402816898181_);}
	.st121{fill:url(#SVGID_00000181055087756453222710000002331355837463516848_);}
	.st122{fill:url(#SVGID_00000044141435072296018760000004838221811579179199_);}
	.st123{fill:url(#SVGID_00000150800835004294212920000015853773536310235023_);}
	.st124{fill:url(#SVGID_00000124847087725006947400000007963288492239033513_);}
	.st125{fill:url(#SVGID_00000004522527166369082510000006590696081594710457_);}
	.st126{fill:url(#SVGID_00000143599366025380744990000012864514765242853765_);}
	.st127{fill:url(#SVGID_00000039856006937776029110000006156202216423537056_);}
	.st128{fill:url(#SVGID_00000170987834588510550250000013732810930393109659_);}
	.st129{fill:url(#SVGID_00000172412885421046400980000002338127184579332996_);}
	.st130{fill:url(#SVGID_00000090986160371573414430000005506577695126283918_);}
	.st131{fill:url(#SVGID_00000154410356415989355930000017935536858704491669_);}
	.st132{fill:url(#SVGID_00000109000040955069590970000006432851162728624544_);}
	.st133{fill:url(#SVGID_00000024700654497817980000000004914350431256467375_);}
	.st134{fill:url(#SVGID_00000179632205194015000880000011942422632980416680_);}
	.st135{fill:url(#SVGID_00000075121141590242246830000002196716241626492298_);}
	.st136{fill:url(#SVGID_00000004539977717438462630000003728239489524432791_);}
	.st137{fill:url(#SVGID_00000054253805444354456510000013017078699567642525_);}
	.st138{fill:#F8ED72;}
	.st139{fill:#BED46F;}
	.st140{fill:#88ABDA;}
	.st141{fill:#B8A4CF;}
	.st142{fill:#D89AC4;}
	.st143{fill:#88C069;}
	.st144{fill:#FDD27B;}
	.st145{fill:#1D1D1B;}
	.st146{fill:#AE8A48;}
	.st147{fill:#567DAA;}
	.st148{fill:#846AAA;}
	.st149{fill:#914B80;}
	.st150{fill:#7A8835;}
	.st151{fill:#518230;}
	.st152{fill:#5B74A5;}
</style>
<g>
	<g>
		<path class="st152" d="M86.13,173.53c-2.57-2.2-5.14-3.86-7.72-5.14c4.04-0.74,8.08-1.1,11.39-1.1c5.51,0,9.37,1.1,9.55,4.41
			c1.1-3.31,2.39-9.92,2.39-15.25c0-5.51-1.47-10.84-6.06-12.31c-1.1-0.37-2.57-0.55-4.41-0.55c-10.66,0-33.44,6.8-47.58,11.94
			c-0.37,1.1-0.73,3.31-0.73,5.7c0,4.78,1.47,11.21,8.82,13.59l6.61-1.84c-4.23,10.84-19.66,49.42-19.66,67.61
			c0,3.31,0.37,6.06,1.29,8.08c-6.43,1.84-12.86,4.23-15.8,5.33c-0.18,1.1-0.55,3.12-0.55,5.33c0,4.78,1.47,11.57,8.82,13.96
			c8.63-2.76,23.33-6.61,32.33-6.61c5.33,0,9.19,1.29,9.55,4.78c1.1-3.31,2.39-9.92,2.39-15.25c0-5.51-1.47-10.84-6.06-12.31
			c-1.29-0.37-2.94-0.73-4.78-0.55l-3.31,0.18c0-7.72,1.84-19.11,5.14-31.42C71.98,195.39,81.54,177.94,86.13,173.53z"/>
		<path class="st152" d="M111.85,259.51c0-33.62,10.29-97.92,20.39-104.17c-1.29-4.04-4.59-6.61-8.45-7.72
			c-1.65-0.55-3.31-0.92-4.78-0.92c-5.51,0-9,4.04-11.39,9.92c-6.98,16.72-21.13,78.81-21.13,105.27c0,5.51,0.55,9.37,2.02,11.21
			c3.67,4.59,11.21,7.17,17.64,7.17c4.04,0,7.72-0.92,9.92-3.12C113.13,277.15,111.85,270.17,111.85,259.51z"/>
		<path class="st152" d="M350.66,181.98c7.72,0,13.96-6.43,13.96-13.96c0-7.9-6.25-14.33-13.96-14.33c-7.9,0-14.15,6.43-14.15,14.33
			C336.52,175.55,342.76,181.98,350.66,181.98z"/>
		<path class="st152" d="M527.39,216.52h-0.37c-5.88,13.23-15.06,30.68-18.74,30.68c-1.47,0-2.2-2.94-2.2-7.17
			c0-14.33,6.98-44.83,10.84-44.83h0.18l0.18-0.92c0-4.04-6.61-10.66-12.68-10.66c-2.94,0-5.69,1.47-7.53,5.7
			c-0.92,2.2-1.84,4.78-2.76,7.53c-1.84-7.9-5.33-19.47-11.57-19.47h-0.18c-8.82,0-21.86,7.53-32.33,29.95
			c-2.17,4.57-4.2,9.27-5.84,13.93c-5.77,12.3-13.32,25.94-16.57,25.94c-1.47,0-2.2-2.94-2.2-7.17c0-14.33,6.98-44.83,10.84-44.83
			h0.18l0.18-0.92c0-5.33-9.55-18.74-15.8-18.74l-1.47,0.37c-5.7,2.57-26.82,31.97-34.72,53.28c1.47-18.74,6.25-40.79,13.41-42.81
			c-2.57-6.43-9-7.9-13.78-7.9c-4.23,0-7.9,2.02-10.84,6.8c-3.6,5.83-7.86,18.52-10.25,31.23c-0.01,0-0.03,0-0.04,0h-0.37
			c-5.88,13.23-15.06,30.68-18.74,30.68c-1.47,0-2.2-2.94-2.2-7.17c0-14.33,8.63-44.64,12.49-44.64h0.18l0.18-0.92
			c0-4.04-9.92-8.08-15.98-8.08c-2.39,0-4.78,0.73-6.25,3.31c-3.83,6.8-7.22,19.63-9.4,31.73c-5.76,12.26-13.26,25.77-16.49,25.77
			c-1.47,0-2.2-2.94-2.2-7.17c0-14.33,6.98-44.83,11.02-44.83h0.18l0.18-1.1c0-4.59-7.35-10.47-13.04-10.47
			c-0.92,0-1.84,0.18-2.76,0.55c-6.61,2.76-23.52,15.98-33.99,38.4c0.18-10.29,3.31-26.82,10.47-34.54
			c-3.12-5.33-8.82-12.49-13.41-12.49c-0.55,0-1.29,0-1.84,0.37c-5.7,2.57-27.56,32.88-35.09,54.2c1.29-18.74,5.33-39.5,13.23-43.36
			c-1.47-4.59-6.06-8.08-12.31-8.08c-4.59,0-9.19,1.84-12.13,6.61c-4.03,6.53-8.9,21.59-11.04,35.69
			c-5.79,12.37-13.43,26.22-16.7,26.22c-1.47,0-2.02-2.76-2.02-6.98c0-14.33,6.98-45.01,10.84-45.01h0.18l0.18-0.92
			c0-3.86-6.8-10.66-12.68-10.66c-2.39,0-4.59,0.92-6.25,3.31c-2.57,3.49-6.06,14.88-8.82,27.01
			c-4.23,11.94-13.23,34.35-18.56,34.35c-0.37,0-0.73-0.18-1.1-0.37c-2.39-1.65-3.31-4.96-3.31-9.37c0-12.12,7.9-31.6,9.55-43.54
			l0.18-1.29c0-5.33-7.9-9.55-14.51-9.55c-3.31,0-6.25,1.1-7.72,3.49c0.73,0,1.1,0.92,1.1,2.57c0,4.78-2.76,15.62-6.98,31.05
			c-2.02,7.17-3.12,14.15-3.12,20.58c0,12.31,4.23,21.49,15.25,21.49h1.29c8.82,0,17.09-8.82,23.15-17.08
			c1.1,11.57,6.98,17.82,14.33,17.82c4.96,0,10.66-2.94,15.98-9.55c3.24-3.94,6.44-8.69,9.23-13.37c0.55,3.05,1.5,5.59,2.89,7.31
			c3.31,4.04,9,6.06,14.33,6.06c4.23,0,8.27-1.29,10.66-3.67c-0.37-0.18-0.55-0.92-0.55-2.39c0-5.51,3.86-20.58,24.62-49.97
			c-4.41,9-10.1,24.62-10.1,35.09c0,3.12,0.37,5.88,1.47,8.08c2.76,5.88,11.76,6.25,17.82,7.72c2.39-15.25,12.68-35.64,25.54-44.09
			c-2.02,7.72-6.61,23.33-6.61,36.74c0,9.74,2.39,18,10.1,21.13c1.84,0.74,3.67,1.1,5.14,1.1c6.25,0,10.84-4.59,14.88-9.74
			c2.4-2.91,4.77-6.27,6.97-9.72v0.54c0,7.53,3.67,15.06,10.47,17.82c1.84,0.74,3.49,1.1,5.14,1.1c6.06,0,10.66-4.59,14.88-9.74
			c3.72-4.61,7.41-10.34,10.49-15.77c0.38,4.14,1.34,7.53,3.11,9.71c3.31,4.04,9.19,6.06,14.51,6.06c4.23,0,8.27-1.29,10.66-3.67
			c-0.55-0.55-0.73-1.29-0.73-2.39c0-10.66,23.33-48.5,23.88-49.24c-3.49,11.57-9.74,32.52-8.82,43.72l0.18,2.39
			c0.92,11.94,6.61,18.74,14.15,18.74c4.96,0,10.66-2.94,16.17-9.55c2.22-2.69,4.41-5.77,6.47-8.94
			c1.39,6.61,5.38,12.21,13.37,15.92c2.02,0.92,4.04,1.47,6.06,1.47c10.66,0,19.11-14.33,24.8-27.37c-0.37,2.21-0.55,4.59-0.55,6.61
			c0,12.12,6.06,22.05,14.51,22.05c4.04,0,8.45-2.02,13.04-6.8c5.7-5.7,21.13-29.03,21.13-36.19v-0.18
			C533.64,216.7,528.68,216.52,527.39,216.52z M466.4,248.12h-0.18c-1.29,0-2.02-1.84-2.02-4.59c0-12.86,12.13-47.77,19.29-47.77
			h0.18c3.31,0,7.53,8.63,7.9,10.84C489.73,210.64,473.38,248.12,466.4,248.12z"/>
		<path class="st152" d="M672.88,189.51l-3.31,0.37c-1.65-5.14-6.61-12.12-13.96-12.31c-16.38,3.66-28.21,21.98-32.36,40.6
			c-7.03,16.07-19.61,36.45-31.02,38.03h-1.1c-4.59,0-9.92-6.61-9.92-17.45c0-17.64,13.04-43.54,18.92-43.54
			c0.37,0,0.55,0.55,0.55,1.1c0,4.78-7.72,22.05-7.72,27.19v0.37c0,6.43,12.13,6.98,16.9,6.98c0-11.39,8.63-30.86,15.25-43.36
			c-0.73-8.45-10.47-8.82-11.94-8.82H613l-5.51,10.47c-1.29-4.96-4.59-8.45-10.47-8.45l-1.65,0.18
			c-21.13,2.39-34.35,36.38-36.56,55.67c-0.18,1.65-0.18,3.12-0.18,4.59c0,12.31,6.25,21.31,22.96,25.17
			c2.76,0.55,5.51,0.92,7.9,0.92c15.37,0,24.31-11.48,32.69-27.32c1.21,8.11,4.5,14.91,10.29,18.87c4.41,2.94,10.47,5.7,18.56,6.43
			l4.04,0.37c21.86,0,31.6-31.05,31.6-49.24v-2.02C686.66,201.46,683.72,189.51,672.88,189.51z M665.17,210.83
			c0,16.35-10.1,43.17-18.74,43.17h-0.18c-3.31,0-4.78-4.41-4.78-10.84c0-17.45,10.66-49.97,21.13-49.97c1.29,0,2.57,0.55,3.86,1.65
			c-1.84,1.47-4.23,3.86-4.41,4.96C664.25,201.82,665.17,205.86,665.17,210.83z"/>
		<path class="st152" d="M779.8,216.52h-0.37c-5.88,13.23-15.06,30.68-18.74,30.68c-1.47,0-2.2-2.94-2.2-7.17
			c0-14.33,6.98-44.83,10.84-44.83h0.18l0.18-0.92c0-5.33-9.55-18.74-15.8-18.74l-1.47,0.37c-5.7,2.57-26.82,31.97-34.72,53.28
			c1.47-18.74,6.25-40.79,13.41-42.81c-2.57-6.43-9-7.9-13.78-7.9c-4.23,0-7.9,2.02-10.84,6.8c-5.33,8.63-12.12,32.33-12.12,48.87
			c0,6.25,0.92,11.39,3.31,14.33c3.31,4.04,9.19,6.06,14.51,6.06c4.23,0,8.27-1.29,10.66-3.67c-0.55-0.55-0.73-1.29-0.73-2.39
			c0-10.66,23.33-48.5,23.88-49.24c-3.49,11.57-9.74,32.52-8.82,43.72l0.18,2.39c0.92,11.94,6.61,18.74,14.15,18.74
			c4.96,0,10.66-2.94,16.17-9.55c9.37-11.39,18.37-29.58,18.37-33.25v-0.18C786.05,216.7,781.09,216.52,779.8,216.52z"/>
	</g>
	<g>
		<g>
			<path class="st152" d="M200.81,318.95c0.69-2.75,1.83-5.27,3.21-7.11c6.65-8.48,23.85-8.25,27.51-4.13
				c-1.38,2.75-2.29,5.5-3.44,8.71c47.23-7.11,76.81-11,85.29-5.96c8.02,4.59-2.06,20.86-6.88,27.51
				c-3.9-2.98-12.84-8.48-83.69-2.98l-3.67,15.59c-5.27,22.01-22.93,99.74-5.73,117.85c-2.75,2.75-7.34,3.9-12.61,3.9
				c-8.02,0-17.42-3.21-22.01-8.94c-10.32-13.07,10.09-99.28,14.67-115.33l2.75-10.78c-14.22,1.38-28.2,1.83-36.23-0.23
				c-6.88-4.59-5.73-17.43-0.92-22.7C169.17,318.95,186.14,319.41,200.81,318.95z"/>
			<path class="st152" d="M270.05,429.92c-7.57,10.32-17.88,21.32-28.89,21.32h-1.6c-13.76,0-19.03-11.46-19.03-26.83
				c0-8.02,1.38-16.74,3.9-25.68c5.27-19.26,8.71-32.79,8.71-38.75c0-2.06-0.46-3.21-1.38-3.21c1.83-2.98,5.5-4.36,9.63-4.36
				c8.25,0,18.11,5.27,18.11,11.92l-0.23,1.6c-2.06,14.9-11.92,39.21-11.92,54.34c0,5.5,1.15,9.63,4.13,11.69
				c0.46,0.23,0.92,0.46,1.38,0.46c6.65,0,17.88-27.97,23.16-42.88c3.44-15.13,7.8-29.35,11.01-33.7c2.06-2.98,4.81-4.13,7.8-4.13
				c7.34,0,15.82,8.48,15.82,13.3l-0.23,1.15h-0.23c-4.81,0-13.53,38.29-13.53,56.17c0,5.27,0.69,8.71,2.52,8.71
				c4.59,0,16.05-21.78,23.39-38.29h0.46c1.6,0,7.8,0.23,7.8,5.73v0.23c0,4.59-11.23,27.28-22.93,41.5
				c-6.65,8.25-13.76,11.92-19.95,11.92C278.77,452.16,271.43,444.37,270.05,429.92z"/>
			<path class="st152" d="M387.44,467.3c-22.7-29.12-1.38-128.17-18.57-135.27c4.81-3.21,14.22-5.5,22.47-4.82
				c9.17,0.69,17.43,4.82,16.74,15.13l-0.46,2.52c-2.52,14.67-7.57,44.02-9.17,67.64c-1.38,18.8-0.69,33.7,5.27,35.08
				c6.19-9.4,13.99-24.53,22.7-48.84c17.43-47,23.39-71.54,24.3-84.38c0.46-7.79-0.92-11.46-2.75-12.84c3.21-0.23,5.96,0,8.71,0
				c22.01,1.6,29.12,14.21,27.74,32.33c-2.98,44.94-58.24,122.66-71.99,143.76h-2.98C401.2,476.93,392.72,473.95,387.44,467.3z"/>
			<path class="st152" d="M487.64,445.51c-9.4-6.42-13.53-18.8-13.53-33.02c0-27.97,16.74-62.59,42.42-68.33
				c9.17,0.23,15.36,8.94,17.42,15.36l4.13-0.46c13.53,0,17.2,14.9,17.2,30.95v2.52c0,22.7-12.15,61.45-39.44,61.45l-5.04-0.46
				C500.7,452.62,493.14,449.18,487.64,445.51z M528.45,385.67c0-6.19-1.15-11.23-3.9-13.76c0.23-1.38,3.21-4.36,5.5-6.19
				c-1.6-1.38-3.21-2.06-4.81-2.06c-13.07,0-26.37,40.58-26.37,62.36c0,8.02,1.83,13.53,5.96,13.53h0.23
				C515.84,439.55,528.45,406.08,528.45,385.67z"/>
			<path class="st152" d="M561.69,434.51c12.15-31.87,56.17-58.24,73.83-64.89c-2.52-2.06-5.96-2.75-10.32-2.75
				c-16.51,0-31.18,11.69-42.88,14.45c-2.06,6.88-5.04,14.67-6.88,18.8c-3.21,1.83-8.02,0.23-9.63-2.75
				c2.52-5.27,6.19-19.49,6.19-19.72c-0.46-1.38-0.69-2.75-0.69-4.36c0-0.92,0.23-2.06,0.23-2.98c0.69-7.8,3.9-16.97,6.65-23.16
				c1.38,4.59,6.42,5.96,10.78,6.42c8.94,1.15,44.25-6.65,53.88-6.65l1.83,0.23c5.5,1.38,7.11,7.57,7.11,14.9
				c0,1.83,0,3.67-0.23,5.5c-0.69,7.57-2.52,14.67-3.44,17.88c-18.11,5.27-45.86,26.14-53.19,40.35
				c12.38-3.44,30.72-8.25,40.58-6.65c3.9,0.69,7.57,4.13,6.88,9.63c-1.38,12.15-10.09,16.28-16.05,18.11
				c-2.52-4.36-8.25-5.96-15.36-5.96c-15.13,0-29.81,7.79-43.79,13.53v-0.69C567.19,450.33,561.69,437.95,561.69,434.51z"/>
		</g>
	</g>
	<g>
		<g>
			<path class="st152" d="M407.37,24.76c5.44,2.52,7.12,6.83,7.02,12.69c-0.26,15.74-0.06,31.49-0.11,47.23
				c-0.01,4.51-2.68,8.11-6.64,9.31c-3.82,1.16-8.15-0.09-10.29-3.48c-1.07-1.68-1.85-3.87-1.87-5.83
				c-0.14-16.69-0.06-33.38-0.1-50.07c-0.01-4.99,2.93-7.77,6.95-9.85C404.01,24.76,405.69,24.76,407.37,24.76z"/>
			<path class="st152" d="M295.67,57.98c2.22,1.21,4.86,1.99,6.6,3.69c12.66,12.41,25.17,24.96,37.65,37.55
				c4.14,4.18,4.07,10,0.14,13.76c-3.81,3.63-9.52,3.5-13.55-0.5c-12.5-12.42-24.94-24.9-37.39-37.37
				c-3.03-3.04-3.95-6.61-2.41-10.66C288.06,60.9,291.43,58.7,295.67,57.98z"/>
			<path class="st152" d="M524.32,68.4c-1.16,2.15-1.9,4.72-3.55,6.39c-12.48,12.73-25.11,25.32-37.77,37.88
				c-3.97,3.94-9.85,3.86-13.55,0.12c-3.74-3.79-3.71-9.48,0.31-13.53c12.49-12.58,25.04-25.09,37.59-37.61
				c3.06-3.05,6.69-3.81,10.69-2.22C521.53,60.8,523.78,64.35,524.32,68.4z"/>
			<path class="st152" d="M348.69,37.31c2.87,0.07,5.87,1.8,7.53,5.33c3.88,8.24,7.72,16.5,11.38,24.84
				c2.1,4.79-0.05,10.08-4.59,12.23c-4.7,2.22-10.17,0.42-12.5-4.46c-3.93-8.21-7.77-16.48-11.38-24.84
				C336.39,44.06,340.91,37.35,348.69,37.31z"/>
			<path class="st152" d="M314.24,134.17c-0.02,6.63-6.53,11.29-12.75,8.68c-8.68-3.65-17.22-7.65-25.68-11.77
				c-4.48-2.18-6.07-7.76-3.98-12.2c2.09-4.44,7.32-6.72,11.92-4.73c8.54,3.7,17,7.6,25.41,11.61
				C312.54,127.37,314.22,130.36,314.24,134.17z"/>
			<path class="st152" d="M441.35,70.11c0.19-0.61,0.52-2.15,1.15-3.56c3.43-7.64,6.91-15.26,10.43-22.85
				c2.59-5.58,7.88-7.86,12.85-5.64c5.13,2.29,6.91,7.83,4.3,13.58c-3.55,7.81-7.09,15.64-10.76,23.39
				c-2.1,4.43-6.37,6.37-10.93,5.27C444.19,79.3,441.31,75.51,441.35,70.11z"/>
			<path class="st152" d="M495.45,134.26c0.01-3.94,1.77-6.93,5.29-8.6c8.23-3.9,16.49-7.71,24.82-11.38
				c4.76-2.1,10.11,0,12.27,4.51c2.24,4.66,0.45,10.2-4.41,12.54c-8.2,3.94-16.46,7.78-24.82,11.37
				C502.19,145.46,495.48,140.99,495.45,134.26z"/>
		</g>
	</g>
</g>
</svg>
